<svg id="Layer_1" data-name="Layer 1" xmlns="http://www.w3.org/2000/svg" width="100%" height="100%" viewBox="0 0 164.04 20.54">
  <path fill="currentColor" d="M7.95,14.81c-.78.77-1.78,1.15-3,1.15h-.72v-7.38h.36c.69,0,1.25.2,1.68.59.43.39.77,1.04,1.03,1.94h.25v-5.3h-.25c-.26.83-.59,1.41-1.01,1.76-.41.35-.98.52-1.7.52h-.36V1.88h.65c.69,0,1.29.12,1.79.35.5.23.94.62,1.3,1.16.36.54.68,1.27.95,2.19h.25l-.2-4.22H0v.22c.27.09.47.28.59.55.12.28.18.7.18,1.25v11.06c0,.56-.06.97-.18,1.25-.12.28-.32.46-.59.55v.23h9.59l.48-5.44h-.29c-.44,1.75-1.05,3-1.83,3.77Z"/>
  <path fill="currentColor" d="M13.34,3.84c.5,0,.91-.16,1.24-.49.33-.32.5-.72.5-1.18s-.17-.84-.5-1.16c-.33-.32-.74-.48-1.24-.48s-.93.16-1.26.48c-.33.32-.5.71-.5,1.16s.16.86.5,1.18c.33.32.75.49,1.26.49Z"/>
  <path fill="currentColor" d="M15.26,15.77c-.1-.26-.16-.67-.16-1.21V4.85l-4.02.32v.2c.26.14.44.36.54.68.11.32.16.81.16,1.47v7.04c0,.54-.06.94-.17,1.21-.11.26-.29.43-.53.51v.2h4.72v-.2c-.26-.08-.44-.24-.54-.51Z"/>
  <path fill="currentColor" d="M23.71,5.04c-.61-.35-1.32-.53-2.13-.53-.69,0-1.33.15-1.9.44-.57.29-1.07.71-1.5,1.25-.43.54-.76,1.18-.98,1.92-.23.74-.34,1.54-.34,2.42,0,1.25.2,2.33.61,3.25.41.92.98,1.63,1.73,2.14.74.51,1.61.77,2.61.77h0c.96,0,1.76-.3,2.38-.91.62-.61,1.08-1.49,1.37-2.63l-.16-.07c-.48.56-1.16.83-2.03.83-.71,0-1.34-.2-1.9-.6-.56-.4-1.01-.96-1.34-1.67-.34-.71-.55-1.55-.64-2.52h6.14v-.29c0-.89-.17-1.66-.5-2.3-.33-.65-.8-1.15-1.41-1.5ZM22.12,8.24c-.35.29-.9.43-1.65.43l-1.02.02v-.32h0c0-1.04.16-1.85.48-2.45.32-.59.76-.89,1.32-.89.41,0,.74.17.99.5.26.33.38.78.38,1.35,0,.62-.17,1.07-.52,1.35Z"/>
  <path fill="currentColor" d="M37.11,15.77c-.1-.26-.16-.67-.16-1.21v-6.32c0-1.2-.27-2.12-.82-2.76-.55-.64-1.33-.96-2.34-.96-.68,0-1.3.19-1.85.58-.56.38-.97.9-1.24,1.55l-.09-2.01-3.91.5v.2c.26.15.44.38.54.69.1.31.16.8.16,1.48v7.06c0,.54-.06.94-.17,1.21-.11.26-.29.43-.53.51v.2h0s4.72,0,4.72,0v-.2c-.26-.08-.44-.24-.54-.51-.1-.26-.16-.67-.16-1.21v-7.61c.15-.21.35-.38.59-.51.24-.13.5-.19.77-.19,1.04,0,1.56.73,1.56,2.19v6.12c0,.54-.06.94-.17,1.21-.11.26-.29.43-.53.51v.2h4.72v-.2c-.26-.07-.44-.24-.54-.51Z"/>
  <path fill="currentColor" d="M48.71,15.78c-.1-.26-.16-.65-.16-1.2V.79l-3.93.11v.2c.2.09.35.21.45.36.11.15.18.36.22.63.04.27.06.62.06,1.06v1.76c-.6-.27-1.24-.41-1.92-.41s-1.33.15-1.92.46c-.59.31-1.1.74-1.53,1.3-.44.56-.77,1.21-1.01,1.96-.23.75-.35,1.57-.35,2.46,0,1.19.17,2.23.52,3.14.35.9.83,1.61,1.46,2.11.62.5,1.34.76,2.16.76h0c.59,0,1.11-.17,1.57-.5.46-.33.81-.76,1.05-1.29l.09,1.56h3.79v-.2c-.26-.08-.44-.24-.54-.5ZM45.35,14.56c-.21.36-.5.54-.86.54-.29,0-.57-.13-.85-.4-.28-.26-.53-.62-.77-1.07-.23-.45-.44-.97-.62-1.57-.18-.59-.32-1.22-.42-1.89-.1-.66-.15-1.32-.15-1.99h0c0-1.02.13-1.81.38-2.35.26-.54.62-.81,1.08-.81.72,0,1.27.61,1.64,1.83.37,1.22.55,3.01.55,5.37v2.32Z"/>
  <path fill="currentColor" d="M59.51,6.21c-.47-.54-1.04-.96-1.69-1.25-.65-.29-1.37-.44-2.16-.44s-1.52.15-2.18.44c-.65.29-1.22.71-1.69,1.25-.48.54-.84,1.19-1.1,1.93-.26.74-.38,1.56-.38,2.45s.13,1.73.38,2.47.62,1.39,1.11,1.93c.48.54,1.05.96,1.7,1.27.65.3,1.37.45,2.16.45s1.5-.15,2.14-.45c.65-.3,1.21-.72,1.69-1.27.48-.54.85-1.18,1.12-1.93.26-.74.4-1.57.4-2.47s-.13-1.7-.4-2.45c-.26-.74-.63-1.39-1.1-1.93ZM56.96,14.81c-.31.95-.74,1.42-1.3,1.42s-1.01-.47-1.32-1.42c-.31-.95-.46-2.36-.46-4.22s.15-3.25.46-4.19c.31-.94.75-1.41,1.32-1.41s.99.47,1.3,1.41c.31.94.46,2.34.46,4.19s-.15,3.27-.46,4.22Z"/>
  <path fill="currentColor" d="M77.99,15.83c-.1-.24-.16-.6-.16-1.06v-6.98c0-1.04-.26-1.84-.77-2.41-.51-.57-1.21-.86-2.1-.86-.68,0-1.29.19-1.83.56-.54.38-.98.92-1.31,1.65-.15-.69-.46-1.23-.94-1.62-.47-.39-1.07-.59-1.79-.59-.66,0-1.26.19-1.81.56s-.96.89-1.24,1.53l-.09-1.99-3.88.5v.2c.26.15.44.38.54.69.1.31.16.8.16,1.48v7.06c0,.54-.06.94-.17,1.21-.11.26-.29.43-.53.51v.2h0s4.69,0,4.69,0v-.2c-.26-.08-.44-.24-.54-.51-.1-.26-.16-.67-.16-1.21v-7.58c.14-.2.32-.36.54-.49.23-.13.47-.19.72-.19.87,0,1.31.61,1.31,1.83v6.64c0,.47-.06.82-.17,1.06-.11.24-.29.39-.53.45v.2h4.7v-.2c-.26-.06-.44-.21-.54-.45-.11-.24-.16-.6-.16-1.06v-6.97c0-.26-.02-.5-.04-.72.14-.23.33-.41.58-.55.25-.14.5-.21.76-.21.87,0,1.31.61,1.31,1.83v6.64c0,.47-.06.82-.17,1.06-.11.24-.3.39-.55.45v.2h4.72v-.2c-.26-.06-.44-.21-.54-.45Z"/>
  <path fill="currentColor" d="M86.57,10.26c-.32-.34-.68-.64-1.08-.91s-.79-.52-1.18-.76c-.39-.23-.75-.47-1.08-.7-.33-.23-.6-.48-.8-.74-.2-.26-.3-.57-.3-.91,0-.38.12-.68.35-.9.23-.23.54-.34.91-.34.59,0,1.15.3,1.7.89.55.59,1.09,1.46,1.61,2.61h.25l-.32-3.86h-.16c-.15.17-.39.25-.72.25-.29,0-.62-.06-.99-.18-.38-.12-.83-.18-1.35-.18-.69,0-1.3.14-1.84.43-.54.29-.96.68-1.26,1.18-.31.51-.46,1.09-.46,1.75,0,.59.1,1.09.3,1.52s.47.81.79,1.14.68.62,1.07.88.78.5,1.16.74c.38.24.74.48,1.07.73.33.25.59.52.79.82.2.3.29.65.29,1.06,0,.45-.12.81-.36,1.06-.24.26-.57.38-.99.38-.74,0-1.43-.35-2.09-1.04-.65-.69-1.28-1.72-1.89-3.07h0s-.25,0-.25,0l.41,4.47h.16c.17-.17.45-.25.84-.25s.8.06,1.24.18c.44.12.95.18,1.54.18.77,0,1.43-.15,1.99-.45.56-.3.99-.72,1.3-1.27.31-.55.46-1.19.46-1.93,0-.6-.1-1.13-.31-1.59s-.47-.86-.79-1.2Z"/>
  <path fill="currentColor" d="M104.71,15.83c-.1-.24-.16-.6-.16-1.06v-6.98c0-1.04-.26-1.84-.77-2.41-.51-.57-1.21-.86-2.1-.86-.68,0-1.29.19-1.83.56-.54.38-.98.92-1.31,1.65-.15-.69-.46-1.23-.94-1.62-.47-.39-1.07-.59-1.8-.59-.66,0-1.26.19-1.81.56-.54.38-.96.89-1.24,1.53l-.09-1.99-3.88.5v.2c.26.15.44.38.54.69.1.31.16.8.16,1.48v7.06c0,.54-.06.94-.17,1.21-.11.26-.29.43-.53.51v.2h0s4.7,0,4.7,0v-.2c-.26-.08-.44-.24-.54-.51-.11-.26-.16-.67-.16-1.21v-7.58c.14-.2.32-.36.54-.49s.47-.19.72-.19c.87,0,1.31.61,1.31,1.83v6.64c0,.47-.06.82-.17,1.06-.11.24-.29.39-.53.45v.2h4.69v-.2c-.26-.06-.44-.21-.54-.45-.11-.24-.16-.6-.16-1.06v-6.97c0-.26-.02-.5-.04-.72.14-.23.33-.41.58-.55.25-.14.5-.21.76-.21.87,0,1.31.61,1.31,1.83v6.64c0,.47-.06.82-.17,1.06-.11.24-.3.39-.55.45v.2h4.72v-.2c-.26-.06-.44-.21-.54-.45Z"/>
  <polygon fill="currentColor" points="111.17 16.7 111.17 16.7 111.16 16.7 111.17 16.7"/>
  <path fill="currentColor" d="M113.07,5.04c-.61-.35-1.32-.53-2.13-.53-.69,0-1.32.15-1.9.44-.57.29-1.07.71-1.5,1.25-.43.54-.76,1.18-.98,1.92-.23.74-.34,1.54-.34,2.42,0,1.25.2,2.33.61,3.25.41.92.98,1.63,1.73,2.14.74.51,1.61.77,2.61.77.96,0,1.76-.31,2.38-.91.62-.61,1.08-1.49,1.37-2.63l-.16-.07c-.48.56-1.16.83-2.03.83-.71,0-1.34-.2-1.9-.6-.56-.4-1-.96-1.34-1.67-.34-.71-.55-1.55-.64-2.52h6.14v-.29c0-.89-.17-1.66-.5-2.3-.33-.65-.8-1.15-1.41-1.5ZM111.48,8.24c-.34.29-.89.43-1.65.43l-1.02.02v-.32h0c0-1.04.16-1.85.48-2.45.32-.59.76-.89,1.32-.89.41,0,.74.17.99.5.26.33.38.78.38,1.35,0,.62-.17,1.07-.52,1.35Z"/>
  <path fill="currentColor" d="M122.9,13.77l-3.36-.43c-.44-.04-.75-.14-.94-.27-.19-.14-.28-.33-.28-.59,0-.33.14-.59.43-.79.57.18,1.22.27,1.94.27,1.41,0,2.52-.33,3.33-.99.8-.66,1.21-1.57,1.21-2.73,0-.84-.24-1.55-.71-2.11-.47-.57-1.15-.94-2.04-1.14v-.07h.56c.77,0,1.33-.09,1.69-.28.36-.19.54-.48.54-.87,0-.23-.08-.41-.23-.55-.15-.14-.35-.22-.59-.22-.18,0-.34.05-.48.16-.14.1-.29.29-.44.54-.18.32-.38.53-.59.64-.21.11-.53.17-.95.17h-1.31c-.95,0-1.77.15-2.45.45-.68.3-1.21.73-1.58,1.29-.37.56-.55,1.22-.55,1.99s.2,1.48.61,2.05c.41.57.97,1,1.69,1.29-.66.2-1.18.51-1.57.95-.38.44-.58.93-.58,1.47,0,.99.58,1.68,1.74,2.08-.75.14-1.35.39-1.78.76-.44.37-.65.8-.65,1.3s.22.93.64,1.29c.43.36,1.03.64,1.82.83s1.72.29,2.8.29h0c1.08,0,2.02-.16,2.8-.49.78-.32,1.39-.78,1.82-1.37.43-.59.64-1.29.64-2.1s-.26-1.47-.77-1.94c-.51-.47-1.32-.76-2.42-.88ZM120.69,4.97c.87,0,1.31,1.09,1.31,3.27s-.44,3.27-1.31,3.27-1.29-1.09-1.29-3.27.43-3.27,1.29-3.27ZM122.97,19.54c-.5.34-1.18.51-2.05.51-.92,0-1.63-.2-2.15-.6-.51-.4-.77-.95-.77-1.66h0c0-.66.17-1.18.52-1.56.09.02.19.03.29.04l3.5.68c.5.09.85.23,1.07.43.22.19.33.46.33.79,0,.57-.25,1.03-.74,1.36Z"/>
  <path fill="currentColor" d="M130.95,15.84c-.11-.23-.17-.58-.17-1.05V.79l-4.02.11v.2c.29.15.47.37.56.67.09.29.14.76.14,1.39v11.62c0,.47-.06.82-.17,1.05-.11.23-.29.38-.53.44v.2h4.72v-.2c-.24-.06-.42-.21-.53-.44Z"/>
  <polygon fill="currentColor" points="137.48 16.7 137.48 16.7 137.48 16.7 137.48 16.7"/>
  <path fill="currentColor" d="M139.39,5.04c-.61-.35-1.32-.53-2.13-.53-.69,0-1.32.15-1.9.44-.57.29-1.07.71-1.5,1.25-.43.54-.76,1.18-.98,1.92-.23.74-.34,1.54-.34,2.42,0,1.25.2,2.33.61,3.25.41.92.98,1.63,1.73,2.14.74.51,1.61.77,2.61.77.96,0,1.76-.31,2.38-.91.62-.61,1.08-1.49,1.37-2.63l-.16-.07c-.48.56-1.16.83-2.03.83-.71,0-1.34-.2-1.9-.6-.56-.4-1-.96-1.34-1.67-.34-.71-.55-1.55-.64-2.52h6.14v-.29c0-.89-.17-1.66-.5-2.3-.33-.65-.8-1.15-1.41-1.5ZM137.8,8.24c-.34.29-.9.43-1.65.43l-1.02.02v-.32h0c0-1.04.16-1.85.48-2.45.32-.59.76-.89,1.32-.89.41,0,.74.17.99.5.26.33.38.78.38,1.35,0,.62-.17,1.07-.52,1.35Z"/>
  <path fill="currentColor" d="M148.59,4.63c-.48,0-.91.22-1.3.67-.38.44-.69,1.06-.91,1.86l-.09-2.53-3.9.5v.2c.27.15.45.37.55.65.1.29.15.75.15,1.4v7.18c0,.54-.06.94-.17,1.21-.11.26-.29.43-.53.51v.2h5.44v-.2c-.36-.11-.65-.25-.86-.43-.21-.18-.36-.42-.44-.73-.08-.31-.12-.72-.12-1.23v-5.85c.32-1.16.77-1.74,1.35-1.74.2,0,.36.03.48.1.13.07.31.1.55.1s.44-.08.6-.25c.16-.16.24-.38.24-.65,0-.3-.09-.54-.28-.71-.19-.17-.44-.26-.76-.26Z"/>
  <path fill="currentColor" d="M156.42,6.95c-.21.16-.52.24-.93.24h-3.96c.1-.28.28-.53.51-.75.24-.22.51-.42.82-.61.31-.19.63-.38.97-.56.34-.18.67-.38.99-.58.32-.2.61-.42.88-.66.26-.24.47-.52.62-.82.15-.31.23-.66.23-1.05,0-.44-.1-.82-.32-1.14-.21-.32-.51-.57-.91-.74-.39-.17-.86-.26-1.39-.26-.48,0-.91.08-1.28.22s-.66.35-.88.62c-.21.26-.32.56-.32.9,0,.18.05.33.15.43.1.1.23.16.39.16.35,0,.54-.23.55-.68.03-.46.11-.8.25-1.01.14-.21.36-.31.64-.31.59,0,.88.48.88,1.45,0,.45-.07.84-.2,1.18-.14.34-.31.65-.53.93-.22.28-.45.55-.7.8-.25.26-.5.51-.74.78-.24.26-.45.54-.62.84-.18.3-.3.64-.37,1.01l-.24,1.62h5.91l.24-2.82h-.16c-.1.38-.26.65-.47.8Z"/>
  <polygon fill="currentColor" points="150.91 8.96 150.91 8.96 150.91 8.96 150.91 8.96"/>
  <path fill="currentColor" d="M163.95,6.79l.09-.96h-1.18V0h-.28l-5.08,6.66v.13h3.39v.64c0,.44-.05.76-.15.96-.1.2-.27.35-.51.45v.12h3.13v-.13c-.2-.06-.34-.17-.41-.32-.07-.15-.11-.4-.11-.76v-.96h1.09ZM160.9,5.83h-2.28l2.28-3v3Z"/>
</svg>