<svg width="252" height="38" viewBox="0 0 252 38" fill="none" xmlns="http://www.w3.org/2000/svg">
<path d="M251.027 14.7463L249.779 13.5552C249.269 13.0448 248.588 13.1015 248.191 13.4985C242.236 19.6239 238.606 21.3821 235.26 21.9493C235.089 22.006 234.863 21.8925 234.806 21.7224L226.809 1.47463C226.639 1.07761 226.242 0.794029 225.788 0.794029H223.179C222.725 0.794029 222.328 1.07761 222.158 1.47463L207.866 37.1493C207.752 37.4896 207.979 37.8298 208.319 37.8298H211.779C212.063 37.8298 212.289 37.6597 212.403 37.4328L216.713 26.3731C216.77 26.203 216.997 26.0328 217.167 26.0328H231.8C232.027 26.0328 232.197 26.203 232.254 26.3731L236.394 37.4328C236.451 37.603 236.621 37.7731 236.791 37.7731H240.421C240.761 37.7731 241.045 37.4328 240.875 37.0925L236.507 26.0896C236.451 25.9194 236.564 25.6925 236.734 25.6358C240.421 24.8418 245.355 22.6299 251.027 16.1642C251.48 15.8239 251.48 15.2 251.027 14.7463ZM219.039 22.1761C218.698 22.1761 218.472 21.8358 218.585 21.5522L224.597 6.74925C224.654 6.63582 224.824 6.63582 224.88 6.74925L230.439 21.5522C230.552 21.8358 230.325 22.1761 230.042 22.1761H219.039Z" fill="#000426"/>
<path d="M41.6299 1.47463C41.5732 1.13433 41.9134 0.794029 42.3105 0.794029H52.1791C62.5582 0.794029 71.7463 7.48657 71.7463 19.2836C71.7463 31.0806 62.5015 37.7731 52.1791 37.7731H42.1403C41.8 37.7731 41.4597 37.4896 41.4597 37.0925C42.0836 32.6687 42.4239 33.6896 42.4239 19.2269C42.4239 6.40895 41.9702 5.95522 41.6299 1.47463ZM52.0657 33.803C59.2687 33.803 67.0388 29.5493 67.0388 19.3403C67.0388 9.13134 59.2687 4.87761 52.0657 4.87761H47.4717C47.1314 4.87761 46.8478 5.16119 46.8478 5.50149C46.7911 6.5791 46.8478 12.9313 46.8478 19.3403C46.8478 25.7493 46.7911 32.2149 46.8478 33.1791C46.8478 33.5194 47.1314 33.803 47.4717 33.803H52.0657Z" fill="#000426"/>
<path d="M0 18.9433C0 8.05373 7.71343 0 18.1493 0C28.5851 0 36.3552 8.05373 36.3552 18.9433C36.3552 29.8328 28.5851 37.8866 18.1493 37.8866C7.71343 37.8866 0 29.8328 0 18.9433ZM31.7045 18.9433C31.7045 10.4358 25.9194 4.08358 18.1493 4.08358C10.3791 4.08358 4.65075 10.4358 4.65075 18.9433C4.65075 27.4507 10.3791 33.803 18.1493 33.803C25.9194 33.803 31.7045 27.4507 31.7045 18.9433Z" fill="#000426"/>
<path d="M77.4746 18.9433C77.4746 8.05373 85.188 0 95.6239 0C106.06 0 113.83 8.05373 113.83 18.9433C113.83 29.8328 106.06 37.8866 95.6239 37.8866C85.188 37.8866 77.4746 29.8328 77.4746 18.9433ZM109.122 18.9433C109.122 10.4358 103.337 4.08358 95.5671 4.08358C87.797 4.08358 82.0686 10.4358 82.0686 18.9433C82.0686 27.4507 87.797 33.803 95.5671 33.803C103.394 33.803 109.122 27.4507 109.122 18.9433Z" fill="#000426"/>
<path d="M169.922 4.93433H159.43C159.033 4.93433 158.749 4.65075 158.749 4.25373V1.53135C158.749 1.13433 159.033 0.85075 159.43 0.85075H186.257C186.654 0.85075 186.937 1.13433 186.937 1.53135V4.25373C186.937 4.65075 186.654 4.93433 186.257 4.93433H175.821C175.424 4.93433 175.14 5.21791 175.14 5.61493V37.206C175.14 37.603 174.857 37.8866 174.46 37.8866H171.284C170.887 37.8866 170.603 37.603 170.603 37.206V5.61493C170.603 5.21791 170.319 4.93433 169.922 4.93433Z" fill="#000426"/>
<path d="M195.955 0.85075H199.075C199.472 0.85075 199.755 1.13433 199.755 1.53135V37.206C199.755 37.603 199.472 37.8866 199.075 37.8866H195.955C195.558 37.8866 195.275 37.603 195.275 37.206V1.53135C195.275 1.13433 195.558 0.85075 195.955 0.85075Z" fill="#000426"/>
<path d="M150.922 1.07761C150.922 0.737314 150.639 0.510448 150.355 0.510448H147.009C146.839 0.510448 146.669 0.567165 146.498 0.737314C146.385 0.850747 146.328 1.0209 146.328 1.24776L146.385 31.3075C146.385 31.4776 146.328 31.591 146.158 31.6478C146.045 31.7045 145.875 31.7045 145.761 31.591C143.719 29.9463 140.997 27.1672 139.069 24.6716C133.454 17.4119 129.257 9.47164 126.534 1.07761C126.421 0.794031 126.194 0.623881 125.91 0.623881H122.281C121.884 0.623881 121.6 0.907463 121.6 1.30448V37.3194C121.6 37.7164 121.884 38 122.281 38H125.343C125.74 38 126.024 37.7164 126.024 37.3194V12.9881C126.024 12.7612 126.194 12.6478 126.307 12.6478C126.421 12.6478 126.591 12.6478 126.704 12.8179C130.278 20.5313 133.284 24.2179 136.176 27.7343L136.8 28.5284C140.77 33.406 144.57 36.6388 145.818 37.6597C145.931 37.7731 146.101 37.8298 146.272 37.8298H150.185C150.639 37.8298 150.866 37.5463 150.922 37.1493V1.07761Z" fill="#000426"/>
</svg>
