<?xml version="1.0" encoding="UTF-8"?>
<svg id="Layer_1" xmlns="http://www.w3.org/2000/svg" xmlns:xlink="http://www.w3.org/1999/xlink" version="1.1" viewBox="0 0 251.98 36">
  <!-- Generator: Adobe Illustrator 29.1.0, SVG Export Plug-In . SVG Version: 2.1.0 Build 142)  -->
  <defs>
    <style>
      .st0 {
        fill: none;
        stroke: url(#linear-gradient2);
        stroke-width: 1.13px;
      }

      .st1 {
        fill: url(#linear-gradient14);
      }

      .st1, .st2, .st3, .st4, .st5, .st6, .st7, .st8, .st9, .st10, .st11, .st12, .st13, .st14 {
        fill-rule: evenodd;
      }

      .st2 {
        fill: url(#linear-gradient15);
      }

      .st3 {
        fill: url(#linear-gradient11);
      }

      .st4 {
        fill: url(#linear-gradient16);
      }

      .st5 {
        fill: url(#linear-gradient10);
      }

      .st6 {
        fill: url(#linear-gradient12);
      }

      .st7 {
        fill: url(#linear-gradient13);
      }

      .st15 {
        fill: url(#linear-gradient);
        stroke: url(#linear-gradient1);
        stroke-width: .19px;
      }

      .st8 {
        fill: url(#linear-gradient8);
      }

      .st9 {
        fill: url(#linear-gradient7);
      }

      .st10 {
        fill: url(#linear-gradient4);
      }

      .st11 {
        fill: url(#linear-gradient5);
      }

      .st12 {
        fill: url(#linear-gradient3);
      }

      .st13 {
        fill: url(#linear-gradient6);
      }

      .st14 {
        fill: url(#linear-gradient9);
      }
    </style>
    <linearGradient id="linear-gradient" x1="-266.89" y1="90.37" x2="-266.89" y2="108.53" gradientTransform="translate(287 116) scale(1 -1)" gradientUnits="userSpaceOnUse">
      <stop offset="0" stop-color="#834628"/>
      <stop offset=".34" stop-color="#824528"/>
      <stop offset=".57" stop-color="#d7a87c"/>
      <stop offset=".79" stop-color="#9c603f"/>
      <stop offset="1" stop-color="#9a5e3d"/>
    </linearGradient>
    <linearGradient id="linear-gradient1" x1="-266.98" x2="-266.98" y2="108.55" xlink:href="#linear-gradient"/>
    <linearGradient id="linear-gradient2" x1="-268.78" x2="-268.78" y2="108.55" xlink:href="#linear-gradient"/>
    <linearGradient id="linear-gradient3" x1="-230.76" y1="104.58" x2="-230.76" y2="91.68" gradientTransform="translate(287 116) scale(1 -1)" gradientUnits="userSpaceOnUse">
      <stop offset="0" stop-color="#d69568"/>
      <stop offset=".19" stop-color="#e2ac7e"/>
      <stop offset="1" stop-color="#c88458"/>
    </linearGradient>
    <linearGradient id="linear-gradient4" x1="-215.06" x2="-215.06" xlink:href="#linear-gradient3"/>
    <linearGradient id="linear-gradient5" x1="-203.34" x2="-203.34" xlink:href="#linear-gradient3"/>
    <linearGradient id="linear-gradient6" x1="-191" x2="-191" y2="91.26" xlink:href="#linear-gradient3"/>
    <linearGradient id="linear-gradient7" x1="-176.82" y1="105" x2="-176.82" y2="91.68" xlink:href="#linear-gradient3"/>
    <linearGradient id="linear-gradient8" x1="-163.39" x2="-163.39" xlink:href="#linear-gradient3"/>
    <linearGradient id="linear-gradient9" x1="-146.66" y1="105" x2="-146.66" y2="91.26" xlink:href="#linear-gradient3"/>
    <linearGradient id="linear-gradient10" x1="-129.29" x2="-129.29" xlink:href="#linear-gradient3"/>
    <linearGradient id="linear-gradient11" x1="-113.66" y1="104.73" x2="-113.66" y2="91.53" xlink:href="#linear-gradient3"/>
    <linearGradient id="linear-gradient12" x1="-97.55" x2="-97.55" xlink:href="#linear-gradient3"/>
    <linearGradient id="linear-gradient13" x1="-84.46" x2="-84.46" xlink:href="#linear-gradient3"/>
    <linearGradient id="linear-gradient14" x1="-69.49" x2="-69.49" xlink:href="#linear-gradient3"/>
    <linearGradient id="linear-gradient15" x1="-55.78" x2="-55.78" xlink:href="#linear-gradient3"/>
    <linearGradient id="linear-gradient16" x1="-40.37" y1="105" x2="-40.37" y2="91.26" xlink:href="#linear-gradient3"/>
  </defs>
  <path class="st15" d="M16.48,20.25h-.09v3.31c0,.6.07,1.05.3,1.4.2.3.51.53.98.75h-4.84c.33-.22.55-.46.69-.78.17-.38.21-.84.21-1.47v-8.49c0-.62-.05-1.09-.22-1.47-.14-.32-.36-.56-.68-.77h6.2c1.53,0,2.79.33,3.67.96.87.63,1.37,1.57,1.37,2.8s-.5,2.17-1.37,2.8c-.87.63-2.13.96-3.65.96h-2.56ZM16.49,13.04h-.09v6.93h1.75c1.12,0,1.94-.35,2.49-.97.55-.62.8-1.48.8-2.5s-.26-1.88-.81-2.5c-.55-.62-1.38-.97-2.49-.97h-1.65ZM24.44,8.9l-.09-.24-.08.24-.67,1.97h-.43l1.13-3.34h.02l.88,2.2.09.22.09-.22.88-2.2h.02l1.13,3.34h-.44l-.67-1.97-.08-.24-.09.24-.82,2.08h-.02l-.82-2.08Z"/>
  <rect class="st0" x=".57" y=".57" width="35.3" height="34.87"/>
  <path class="st12" d="M58.29,15.37c0,.44-.16.82-.47,1.13-.31.31-.74.47-1.28.47h-2.34v-3.23h2.34c.54,0,.97.16,1.28.47.31.31.47.7.47,1.16ZM60.87,15.37c0-1.13-.42-2.08-1.24-2.83-.82-.74-1.86-1.12-3.1-1.12h-4.84s-.08.04-.08.08v12.74s.04.08.08.08h2.42s.08-.04.08-.08v-4.96h2.34c1.24,0,2.28-.37,3.1-1.11.82-.74,1.23-1.68,1.23-2.81Z"/>
  <path class="st10" d="M66.45,24.32h2.42s.08-.04.08-.08v-10.5h2.34c.6,0,1.1.16,1.47.47.38.31.56.72.56,1.24s-.18.91-.56,1.21c-.38.31-.88.46-1.48.46h-2.16s-.08.04-.08.08v.52s0,.04.02.05l5.33,6.52s.04.03.06.03h2.99s.06-.02.07-.05c.01-.03,0-.06-.01-.08l-4.38-5.21c.74-.12,1.38-.51,1.92-1.16.58-.69.87-1.49.87-2.38,0-1.15-.41-2.12-1.23-2.88-.81-.76-1.91-1.14-3.27-1.14h-4.95s-.08.04-.08.08v12.74s.04.08.08.08Z"/>
  <path class="st11" d="M84.96,24.24v-12.74s-.04-.08-.08-.08h-2.42s-.08.04-.08.08v12.74s.04.08.08.08h2.42s.08-.04.08-.08Z"/>
  <path class="st13" d="M95.73,24.74h.58s.06-.02.07-.05l6.18-13.16s0-.05,0-.08c-.01-.02-.04-.04-.07-.04h-2.6s-.06.02-.07.05l-3.82,8.22-3.81-8.22s-.04-.05-.07-.05h-2.6s-.05.01-.07.04c-.01.02-.02.05,0,.08l6.22,13.16s.04.05.07.05Z"/>
  <path class="st9" d="M111.39,18.67h-2.44l1.22-2.62,1.22,2.62ZM110.49,11h-.58s-.06.02-.07.05l-6.22,13.16s0,.05,0,.08c.01.02.04.04.07.04h2.6s.06-.02.07-.05l1.51-3.29h4.6l1.53,3.29s.04.05.07.05h2.6s.05-.01.07-.04c.01-.02.02-.05,0-.08l-6.18-13.16s-.04-.05-.07-.05Z"/>
  <path class="st8" d="M128.26,11.42h-9.29s-.08.04-.08.08v2.16s.04.08.08.08h3.37v10.5s.04.08.08.08h2.42s.08-.04.08-.08v-10.5h3.34s.08-.04.08-.08v-2.16s-.04-.08-.08-.08Z"/>
  <path class="st14" d="M146.92,24.27s.04.05.08.05h1.63s.05-.01.07-.03c.01-.02.02-.05.01-.07l-4.42-13.16s-.04-.05-.07-.05c-.03,0-.06.02-.08.05l-3.79,9.47-3.8-9.47s-.03-.05-.08-.05c-.03,0-.06.02-.07.05l-4.42,13.16s0,.05.01.07c.01.02.04.03.07.03h1.52s.07-.02.08-.05l2.96-8.7,3.62,9.13s.04.05.08.05.06-.02.07-.05l3.61-9.1,2.95,8.67Z"/>
  <path class="st5" d="M161.58,24.24v-1.37s-.04-.08-.08-.08h-5.96v-4.22h5.72s.08-.04.08-.08v-1.37s-.04-.08-.08-.08h-5.72v-4.08h5.96s.08-.04.08-.08v-1.37s-.04-.08-.08-.08h-7.59s-.08.04-.08.08v12.74s.04.08.08.08h7.59s.08-.04.08-.08Z"/>
  <path class="st3" d="M179.77,17.07h-6.23s-.08.04-.08.08v1.37s.04.08.08.08h4.6c-.01.75-.21,1.45-.59,2.08-.39.66-.95,1.19-1.66,1.58-.71.39-1.51.59-2.38.59s-1.75-.22-2.51-.66c-.76-.44-1.36-1.05-1.8-1.81-.44-.76-.66-1.61-.66-2.52s.22-1.76.66-2.52c.44-.76,1.04-1.37,1.8-1.81.76-.44,1.6-.66,2.5-.66,1.45,0,2.75.61,3.86,1.81.03.03.08.03.11,0l1.15-.95s.04-.08.01-.11c-.64-.76-1.4-1.35-2.28-1.75-.88-.4-1.84-.61-2.85-.61-1.2,0-2.32.3-3.34.88-1.02.59-1.84,1.4-2.43,2.41-.6,1.01-.9,2.12-.9,3.31s.3,2.3.89,3.31c.59,1.01,1.41,1.82,2.43,2.41,1.02.59,2.15.88,3.35.88s2.35-.3,3.32-.9c.97-.6,1.73-1.4,2.25-2.38.52-.98.78-2.08.78-3.26v-.78s-.04-.08-.08-.08Z"/>
  <path class="st6" d="M193.24,22.79h-5.96v-11.29s-.04-.08-.08-.08h-1.55s-.08.04-.08.08v12.74s.04.08.08.08h7.59s.08-.04.08-.08v-1.37s-.04-.08-.08-.08Z"/>
  <path class="st7" d="M206.33,11.42h-7.59s-.08.04-.08.08v12.74s.04.08.08.08h7.59s.08-.04.08-.08v-1.37s-.04-.08-.08-.08h-5.96v-4.22h5.73s.08-.04.08-.08v-1.37s-.04-.08-.08-.08h-5.73v-4.08h5.96s.08-.04.08-.08v-1.37s-.04-.08-.08-.08Z"/>
  <path class="st1" d="M217.84,18.84c.9-.04,1.68-.39,2.29-1.04.66-.69.99-1.55.99-2.56,0-1.1-.39-2.02-1.15-2.74-.76-.72-1.8-1.08-3.1-1.08h-4.2s-.08.04-.08.08v12.74s.04.08.08.08h1.55s.08-.04.08-.08v-11.29h2.43c.8,0,1.45.21,1.94.63.49.42.73.98.73,1.66s-.25,1.25-.73,1.66c-.49.42-1.14.63-1.94.63h-1.94s-.06.02-.07.05c-.01.03,0,.06.01.09l5.58,6.62s.04.03.06.03h1.96s.06-.02.07-.05c.01-.03,0-.06-.01-.08l-4.56-5.35Z"/>
  <path class="st2" d="M235.02,11.42h-7.59s-.08.04-.08.08v12.74s.04.08.08.08h7.59s.08-.04.08-.08v-1.37s-.04-.08-.08-.08h-5.96v-4.22h5.72s.08-.04.08-.08v-1.37s-.04-.08-.08-.08h-5.72v-4.08h5.96s.08-.04.08-.08v-1.37s-.04-.08-.08-.08Z"/>
  <path class="st4" d="M251.9,11.42h-1.55s-.08.04-.08.08v9.11l-8.84-9.58s-.06-.03-.09-.02c-.03.01-.05.04-.05.07v13.16s.04.08.08.08h1.55s.08-.04.08-.08v-9.11l8.84,9.58s.04.03.06.03c0,0,.02,0,.03,0,.03-.01.05-.04.05-.07v-13.16s-.04-.08-.08-.08Z"/>
</svg>