<svg xmlns="http://www.w3.org/2000/svg" fill="none" viewBox="0 0 4446 360" height="360" width="4446">
<path fill="black" d="M300.5 4.99998V65.5H187V355H113.5V65.5H5.96046e-07V4.99998H300.5ZM580.566 4.99998H654.066V355H580.566V205.5H426.566V355H353.066V4.99998H426.566V145H580.566V4.99998ZM958.043 4.99998H1031.54V219C1031.54 323.5 972.043 360 879.043 360C786.043 360 726.543 323.5 726.543 219V4.99998H800.043V214C800.043 268.5 829.043 298 879.043 298C929.043 298 958.043 268.5 958.043 214V4.99998ZM1359.04 4.99998H1428.54V355H1324.54L1173.54 74.5V355H1104.04V4.99998H1208.04L1359.04 285V4.99998ZM1642.96 4.99998C1759.96 4.99998 1826.96 72.5 1826.96 178C1826.96 282.5 1761.46 355 1644.46 355H1503.46V4.99998H1642.96ZM1643.46 294.5C1715.46 294.5 1751.46 252 1751.46 178C1751.46 106.5 1714.96 65.5 1641.96 65.5H1576.96V294.5H1643.46ZM2145.42 65.5H1953.42V146.5H2130.42V207H1953.42V294.5H2145.42V355H1879.92V4.99998H2145.42V65.5ZM2486.93 264L2511.93 355H2430.93L2412.93 272C2402.93 225 2364.43 220.5 2315.43 220.5H2286.43V355H2212.93V4.99998H2377.43C2460.93 4.99998 2506.43 41 2506.43 107.5C2506.43 159 2463.93 191.5 2395.43 197C2443.43 200.5 2473.43 213.5 2486.93 264ZM2286.43 162.5H2361.93C2406.93 162.5 2432.93 143.5 2432.93 110.5C2432.93 80.5 2409.43 63 2368.93 63H2286.43V162.5ZM2900.39 4.99998H2973.89V355H2900.39V205.5H2746.39V355H2672.89V4.99998H2746.39V145H2900.39V4.99998ZM3204.87 -1.90735e-05C3311.87 -1.90735e-05 3382.87 72 3382.87 180.5C3382.87 288 3311.87 360 3204.87 360C3097.87 360 3026.87 288 3026.87 180.5C3026.87 72 3097.87 -1.90735e-05 3204.87 -1.90735e-05ZM3204.87 298C3264.37 298 3307.37 255.5 3307.37 180C3307.37 104.5 3264.37 62 3204.87 62C3145.37 62 3102.37 104.5 3102.37 180C3102.37 255.5 3145.37 298 3204.87 298ZM3691.07 4.99998H3760.57V355H3656.57L3505.57 74.5V355H3436.07V4.99998H3540.07L3691.07 285V4.99998ZM4100.99 65.5H3908.99V146.5H4085.99V207H3908.99V294.5H4100.99V355H3835.49V4.99998H4100.99V65.5ZM4358 4.99998H4445.5L4326.5 223V355H4252.5V223L4133.5 4.99998H4220.5L4289.5 173L4358 4.99998Z"></path>
</svg>
