<svg xmlns="http://www.w3.org/2000/svg" width="660" height="118" viewBox="0 0 660.38 117.82" role="img" aria-label="Velocity North">
<path transform="translate(24.00,80.38) scale(0.03125,-0.03125)" d="M1282 479 164 0V209L1059 584L164 961V1169L1282 690Z" fill="#9A8B85"/>
<path transform="translate(84.53,80.38) scale(0.03125,-0.03125)" d="M614 0 61 1434H281L727 254L1174 1434H1393L840 0Z" fill="#1A1411"/>
<path transform="translate(131.22,80.38) scale(0.03125,-0.03125)" d="M1065 432H360V197H1065V0H360Q320 0 284.0 15.5Q248 31 221.5 57.5Q195 84 179.5 120.0Q164 156 164 197V868Q164 909 179.5 945.0Q195 981 221.5 1007.5Q248 1034 284.0 1049.5Q320 1065 360 1065H868Q909 1065 945.0 1049.5Q981 1034 1007.5 1007.5Q1034 981 1049.5 945.0Q1065 909 1065 868ZM360 868V629H868V868Z" fill="#1A1411"/>
<path transform="translate(170.88,80.38) scale(0.03125,-0.03125)" d="M360 1475V0H164V1475Z" fill="#1A1411"/>
<path transform="translate(188.50,80.38) scale(0.03125,-0.03125)" d="M1085 197Q1085 156 1069.5 120.0Q1054 84 1027.5 57.5Q1001 31 965.5 15.5Q930 0 889 0H360Q320 0 284.0 15.5Q248 31 221.5 57.5Q195 84 179.5 120.0Q164 156 164 197V868Q164 909 179.5 945.0Q195 981 221.5 1007.5Q248 1034 284.0 1049.5Q320 1065 360 1065H889Q930 1065 965.5 1049.5Q1001 1034 1027.5 1007.5Q1054 981 1069.5 945.0Q1085 909 1085 868ZM360 868V197H889V868Z" fill="#1A1411"/>
<path transform="translate(228.78,80.38) scale(0.03125,-0.03125)" d="M360 868V197H868V377H1065V197Q1065 156 1049.5 120.0Q1034 84 1007.5 57.5Q981 31 945.0 15.5Q909 0 868 0H360Q320 0 284.0 15.5Q248 31 221.5 57.5Q195 84 179.5 120.0Q164 156 164 197V868Q164 909 179.5 945.0Q195 981 221.5 1007.5Q248 1034 284.0 1049.5Q320 1065 360 1065H868Q909 1065 945.0 1049.5Q981 1034 1007.5 1007.5Q1034 981 1049.5 945.0Q1065 909 1065 868V688H868V868Z" fill="#1A1411"/>
<path transform="translate(268.44,80.38) scale(0.03125,-0.03125)" d="M371 1065V0H174V1065ZM164 1475H381V1270H164Z" fill="#1A1411"/>
<path transform="translate(286.72,80.38) scale(0.03125,-0.03125)" d="M102 1065H362V1393H559V1065H909V868H559V197H909V0H559Q519 0 483.0 15.5Q447 31 420.0 57.5Q393 84 377.5 120.0Q362 156 362 197V868H102Z" fill="#1A1411"/>
<path transform="translate(321.50,80.38) scale(0.03125,-0.03125)" d="M236 -430 459 96 41 1065H248L559 332L870 1065H1077L432 -430Z" fill="#1A1411"/>
<path transform="translate(378.12,80.38) scale(0.03125,-0.03125)" d="M389 0H184V1434H389L1251 322V1434H1456V0H1251L389 1112Z" fill="#1A1411"/>
<path transform="translate(430.62,80.38) scale(0.03125,-0.03125)" d="M1085 197Q1085 156 1069.5 120.0Q1054 84 1027.5 57.5Q1001 31 965.5 15.5Q930 0 889 0H360Q320 0 284.0 15.5Q248 31 221.5 57.5Q195 84 179.5 120.0Q164 156 164 197V868Q164 909 179.5 945.0Q195 981 221.5 1007.5Q248 1034 284.0 1049.5Q320 1065 360 1065H889Q930 1065 965.5 1049.5Q1001 1034 1027.5 1007.5Q1054 981 1069.5 945.0Q1085 909 1085 868ZM360 868V197H889V868Z" fill="#1A1411"/>
<path transform="translate(470.91,80.38) scale(0.03125,-0.03125)" d="M360 868V0H164V1065H360V877Q362 916 378.0 950.5Q394 985 420.5 1010.5Q447 1036 482.0 1050.5Q517 1065 557 1065H766Q807 1065 842.5 1049.5Q878 1034 905.0 1007.5Q932 981 947.5 945.0Q963 909 963 868V688H766V868Z" fill="#1A1411"/>
<path transform="translate(504.78,80.38) scale(0.03125,-0.03125)" d="M102 1065H362V1393H559V1065H909V868H559V197H909V0H559Q519 0 483.0 15.5Q447 31 420.0 57.5Q393 84 377.5 120.0Q362 156 362 197V868H102Z" fill="#1A1411"/>
<path transform="translate(539.56,80.38) scale(0.03125,-0.03125)" d="M1106 0H909V868H360V0H164V1475H360V877Q362 916 378.0 950.5Q394 985 420.5 1010.5Q447 1036 482.0 1050.5Q517 1065 557 1065H909Q950 1065 986.0 1049.5Q1022 1034 1048.5 1007.5Q1075 981 1090.5 945.0Q1106 909 1106 868Z" fill="#1A1411"/>
<rect x="602.09" y="24.00" width="34.28" height="64.00" fill="#D1402F"/>
</svg>
